Patient4_TMGait_0pt6_02_right_15_EMG.mot
version=1
nRows=20
nColumns=33
inDegrees=no
endheader
time	1LAddLong	2LGlutMax	3LGlutMed	4LIliopsoas	5LSemiMemb	6LBicFemLong	7LRecFem	8LVastMed	9LVastLat	10LGasMed	11LTibAnt	12lTibPost	13LPeroneusLong	14LSol	15LExtDigLong	16LFlexDigLong	17RAddLong	18RGlutMax	19RGlutMed	20RIliopsoas	21RSemiMemb	22RBicFemLong	23RRecFem	24RVastMed	25RVastLat	26RGasMed	27RTibAnt	28RTibPost	29RPeroneusLong	30RSol	31RExtDigLong	32RFlexDigLong
18.262	-0.005035	-1.1743	-0.023804	0.037079	0.023804	-0.068817	0.23773	-0.001678	0.19165	-0.072021	0.38071	0.009613	-0.1712	0.3389	-0.24139	-0.009766	-0.059052	-0.74982	-1.0474	-0.042114	0.12604	0.17212	0.40283	0.030823	0.07019	-0.007782	-0.40115	-0.039825	0.16556	-0.11093	0.00061	-0.011139
18.263	0.002289	-1.1252	0.018463	0.004578	0.025482	-0.045776	0.20584	0.000305	0.19226	-0.087585	0.29724	0.008698	-0.073853	0.39368	-0.006104	-0.006714	-0.074463	-0.69	-0.55695	-0.10254	0.039825	-0.085907	0.36804	0.19348	0.071716	0.002441	-0.48263	-0.040436	0.068207	-0.11185	0.000916	-0.007019
18.264	-0.002289	-1.1264	0.05188	-0.020599	0.023804	-0.035248	0.14999	-0.001068	0.16861	-0.072021	0.29648	0.006714	-0.066986	0.41901	-0.12665	-0.004883	-0.10254	-0.634	-0.31021	-0.16525	0.083313	-0.12238	0.43259	0.13901	0.38544	0.019684	-0.55512	-0.029144	0.019684	-0.27069	0.00351	-0.011749
18.265	0.011292	-1.162	0.059662	-0.009613	0.016479	-0.011139	0.13321	-0.002594	0.15625	-0.092316	0.14023	0.002899	-0.1268	0.36072	0.4483	0.005951	-0.1088	-0.58243	0.07843	-0.14755	0.22217	-0.16052	0.56702	0.09552	0.44968	0.013733	-0.44174	-0.031281	-0.20615	-0.5658	0.000153	-0.008087
18.266	0.010529	-1.1842	0.073547	-0.005493	0.016937	-0.010529	0.16815	-0.003662	0.15015	-0.067902	-0.21439	0.006256	-0.1178	0.21271	0.32562	0.016785	-0.069427	-0.55191	-0.26566	-0.044708	0.1413	-0.2417	0.56992	0.013123	0.3421	-0.024872	-0.37933	-0.050964	-0.4187	-1.0489	0.001068	-0.019989
18.267	0.010071	-1.194	0.069122	-0.008545	0.014801	-0.011292	0.26413	-0.002594	0.12817	-0.079651	-0.22568	-0.007172	-0.053253	0.1358	0.30319	-0.018158	-0.05188	-0.63248	-0.42099	0.061798	0.040283	-0.33905	0.6221	0.044708	0.19669	-0.095825	-0.42679	-0.15167	-0.41031	-1.107	0.004425	-0.018463
18.268	0.010223	-1.2555	0.033264	-0.015564	0.012665	-0.00946	0.36697	0.001373	0.098419	-0.090637	-0.12512	0	0.026245	0.066376	-1.0014	-0.005035	-0.006561	-0.75333	-0.39383	0.17517	-0.022583	-0.36804	0.7782	0.03479	0.067444	-0.054169	-0.3273	0.018463	-0.19302	-0.52048	0.00473	-0.016937
18.269	0.006409	-1.2544	0.037842	-0.020142	0.018311	0.012512	0.46295	0.002441	0.079346	-0.086517	-0.080872	0.001678	0.028229	-0.00946	-0.83344	-0.013275	0.010681	-0.8168	-0.70175	0.13351	-0.040283	-0.2829	0.67001	0.15762	-0.018463	-0.008698	0.11475	0.017242	0.019836	-0.52872	0.001221	-0.014648
18.27	0.001526	-1.1903	0.058136	-0.023499	0.002899	0.015259	0.49408	0.005646	0.055542	-0.075378	-0.047455	0.002441	-0.019531	-0.048523	-0.66009	-0.023499	0.019073	-0.84366	-0.47806	-0.011597	-0.13046	-0.36209	0.45929	0.2565	-0.41687	-0.040588	0.26886	-0.001221	-0.015106	-0.20187	0.002441	-0.01236
18.271	-0.00824	-1.1107	0.047913	-0.016022	0.002594	-0.005646	0.35034	0.010529	0.034485	-0.10071	-0.23071	-0.004578	-0.036774	-0.006256	-0.4924	-0.01236	-0.005798	-0.9491	-0.94376	-0.19363	-0.1088	-0.38147	0.52246	0.065613	-0.63278	-0.040894	0.010681	-0.011749	0.050659	0.42938	0.001831	-0.013733
18.272	-0.003967	-1.0799	0.04837	-0.027161	0.00412	0.005035	0.12985	0.021973	0.03418	-0.098114	-0.28992	-0.000153	-0.018616	0.037079	-0.053711	-0.003204	0.022278	-1.1067	-1.5053	-0.25055	-0.25238	-0.39566	0.73013	-0.1651	-0.62332	-0.004883	0.17609	-0.036774	0.2507	0.90729	0.002594	-0.010071
18.273	-0.006256	-1.0272	0.041504	-0.023956	0.006561	0.007324	0.06012	0.022736	0.02182	-0.057526	-0.14633	0.007477	-0.083923	-0.024414	0.025787	-0.001526	-0.010681	-1.1131	-1.1211	-0.16113	-0.29251	-0.19714	0.62088	-0.072784	-0.32379	0.015869	0.20874	-0.031128	0.38269	0.81543	0.001678	-0.00885
18.274	-0.014801	-0.97382	0.054474	-0.011749	-0.00061	0.005493	-0.12482	0.032349	0.019073	-0.021515	-0.020447	0.003662	-0.19775	-0.083923	0.45975	0.005188	-0.098267	-1.1484	-0.42038	-0.081787	-0.085754	-0.022583	0.54886	-0.033722	-0.16022	0.03479	-0.47485	-0.014038	0.48752	0.58884	0.000763	-0.000153
18.275	-0.014343	-0.94147	0.034637	-0.008392	-0.007477	0.005951	-0.19791	0.028076	0.037231	-0.03479	0.074158	-0.000458	-0.18158	-0.005951	0.18723	0.008087	-0.074921	-1.1336	-0.86319	0.060425	0.10422	-0.083313	0.57663	0.023193	-0.11887	0.036774	-0.55191	-0.007477	0.50461	0.17578	0.005035	-0.002594
18.276	-0.00946	-0.89233	0.049438	-0.026703	0.000305	-0.005188	-0.13397	0.029297	0.055695	-0.065308	0.092926	0.003967	-0.088654	-0.033569	0.014191	0.008698	-0.068054	-1.057	-1.2607	0.036316	0.26276	-0.046082	0.44769	0.073853	-0.023804	0.009918	0.000305	-0.018005	0.1796	-0.090942	0.00412	-0.00824
18.277	-0.002136	-0.83221	0.040283	-0.041962	0.012207	-0.001984	-0.25177	0.025482	0.047913	-0.068512	-0.012512	0.006104	-0.027466	-0.10315	1.1768	0.007629	-0.088501	-0.99472	-1.2624	0.005188	0.26245	0.036163	0.1622	-0.022125	0.090637	-0.004883	0.28229	-0.030518	0.19562	-0.11566	0.005646	-0.01236
18.278	0.001984	-0.75867	0.03891	-0.025787	0.004883	-0.016327	-0.3389	0.023499	0.021973	-0.075989	-0.02533	0.003662	-0.057373	-0.033112	-0.14679	0.004272	-0.054321	-0.99823	-1.4851	0.04715	0.098114	0.063629	0.030212	-0.088348	-0.076447	-0.00061	0.65781	-0.094147	-0.16571	-0.080261	0.00351	-0.008545
18.279	-0.00946	-0.6868	0.045166	-0.007629	0.012054	-0.00473	-0.2507	0.022278	0.007019	-0.063934	0.13672	0.001984	-0.049286	-0.001373	-0.29327	0.006866	-0.018616	-0.95856	-0.99213	0.006409	0.006409	-0.028687	0.34454	0.49149	-0.20386	-0.009918	0.93368	-0.16892	-0.53268	-0.019531	0.005798	-0.018005
18.28	-0.014496	-0.63004	0.071564	0.021667	0.010529	-0.007935	-0.010529	0.025635	-0.005493	-0.053406	0.121	0.005035	-0.055237	0.030365	-0.62408	0.001831	0.008545	-0.9462	-0.47638	-0.060425	0.001984	-0.085907	0.50369	1.3515	-0.19394	-0.022278	1.2503	-0.076141	-0.42496	-0.13687	0.000458	-0.018616
18.281	-0.01297	-0.62759	0.075378	-0.010681	0.009766	-0.011444	0.036774	0.024414	-0.011292	-0.04303	0.005188	0.005646	-0.048676	-0.003967	-0.58624	0.005188	0.0177	-1.0596	-0.62088	-0.0737	-0.022583	-0.12177	0.46081	0.88242	0.033264	-0.004425	1.5439	0.14084	-0.08255	-0.022278	0.002747	-0.019836
